<svg version="1.1" xmlns="http://www.w3.org/2000/svg" xmlns:xlink="http://www.w3.org/1999/xlink" width="512.000000pt" height="512.000000pt" viewBox="0,0,256,256"><g fill="#ce5c00" fill-rule="nonzero" stroke="none" stroke-width="1" stroke-linecap="butt" stroke-linejoin="miter" stroke-miterlimit="10" stroke-dasharray="" stroke-dashoffset="0" font-family="none" font-weight="none" font-size="none" text-anchor="none" style="mix-blend-mode: normal"><g transform="translate(0,-0.02723) scale(0.5,0.5)"><g transform="translate(0,512) scale(0.1,-0.1)"><path d="M1035,5098c-38,-11 -72,-22 -74,-24c-4,-4 159,-648 169,-664c5,-8 25,-6 76,6c38,9 73,20 77,24c7,6 -122,540 -159,663c-6,20 -1,21 -89,-5z"></path><path d="M3552,5084c-35,-24 -41,-43 -67,-224c-14,-94 -30,-180 -35,-191c-18,-33 -56,-51 -90,-44c-26,6 -52,35 -146,160c-121,162 -148,184 -197,166c-15,-6 -84,-54 -154,-107l-128,-96l-91,6c-264,16 -552,-46 -801,-172c-159,-80 -281,-169 -408,-297c-265,-265 -420,-584 -467,-956c-11,-94 -13,-99 -36,-99c-13,0 -36,-12 -51,-27c-23,-24 -32,-50 -56,-170c-16,-79 -33,-143 -38,-143c-4,0 -60,37 -125,82c-168,118 -155,121 -342,-68c-127,-127 -150,-155 -150,-180c0,-22 25,-66 85,-155c47,-68 85,-126 85,-129c0,-3 -64,-19 -142,-35c-121,-24 -147,-33 -170,-56l-28,-27v-197v-197l28,-27c23,-23 49,-32 167,-56c77,-16 142,-30 144,-32c3,-2 -35,-62 -83,-133c-79,-116 -88,-132 -82,-162c5,-26 39,-66 149,-176c185,-185 171,-182 336,-68c69,47 127,86 131,86c3,0 19,-64 35,-142c24,-121 33,-147 56,-170l27,-28h197h197l27,28c23,23 32,49 56,170c16,78 32,142 35,142c4,0 62,-39 131,-86c155,-107 160,-107 265,-3l72,71l4,-158c3,-136 7,-166 25,-206c28,-62 66,-110 108,-139l34,-23l3,-276l3,-275l28,-60c36,-78 95,-137 171,-172c60,-27 65,-28 271,-31c228,-4 305,5 370,43c60,35 115,94 144,155c26,55 26,57 29,335l4,280l39,28c22,15 53,49 70,75c52,82 59,124 59,352c0,331 30,400 234,545c134,95 160,119 150,137c-5,8 -29,38 -55,65l-45,51l-35,-29c-18,-16 -76,-59 -127,-96c-146,-104 -218,-196 -264,-333c-19,-57 -22,-96 -27,-316l-6,-251l-28,-36c-53,-69 -42,-68 -485,-65l-397,3l-33,23c-63,46 -66,60 -73,342c-6,286 -14,323 -88,437c-49,75 -95,120 -211,203c-124,89 -188,144 -272,237c-175,193 -296,441 -349,718c-21,107 -18,408 5,515c92,430 345,779 712,982c192,106 389,165 617,183c74,6 77,5 77,-15c0,-30 10,-47 126,-202c107,-144 122,-179 91,-219c-31,-40 -48,-41 -242,-13c-204,29 -232,27 -254,-24c-18,-39 -86,-532 -78,-564c12,-45 45,-58 222,-84c91,-13 177,-27 191,-30c51,-13 71,-87 36,-130c-9,-12 -81,-69 -158,-127c-142,-106 -154,-119 -154,-162c0,-27 316,-457 349,-474c43,-23 69,-12 218,99c81,61 158,113 170,116c33,9 76,-9 93,-38c13,-24 12,-45 -9,-195c-12,-92 -21,-186 -19,-207c5,-66 24,-73 289,-111c278,-41 321,-43 349,-15c24,24 25,27 55,235c22,156 26,172 50,193c26,22 58,28 90,16c9,-4 64,-70 122,-148c58,-77 114,-149 125,-158c47,-41 73,-29 308,147c222,167 248,193 236,240c-3,12 -54,86 -114,166c-60,80 -112,154 -116,166c-9,29 8,69 39,89c25,16 36,16 215,-9c194,-27 221,-27 249,7c12,14 90,500 91,563c0,12 -10,34 -22,48c-21,24 -38,28 -217,54c-119,18 -198,34 -207,43c-23,23 -33,73 -20,99c6,13 72,70 146,126c150,114 180,143 180,178c0,16 -54,97 -151,227c-191,256 -193,258 -240,258c-32,0 -59,-16 -186,-110c-81,-61 -158,-113 -170,-116c-34,-9 -77,17 -89,54c-8,26 -5,68 13,190c28,197 28,215 1,247c-22,25 -37,28 -293,65c-148,22 -275,40 -280,40c-6,0 -21,-7 -33,-16zM3997,4866c3,-2 -3,-55 -12,-118c-24,-161 -22,-214 9,-275c61,-122 213,-175 331,-116c16,9 79,51 138,96c59,44 109,78 111,76c40,-51 188,-252 191,-262c3,-7 -37,-43 -91,-82c-158,-115 -196,-170 -196,-280c-1,-102 59,-192 150,-231c20,-8 97,-24 171,-35c74,-10 136,-21 138,-22c1,-2 -9,-75 -22,-162c-14,-88 -25,-163 -25,-166c0,-3 -57,3 -127,13c-71,11 -151,17 -179,15c-151,-15 -254,-155 -224,-304c9,-44 29,-77 101,-174c49,-65 89,-121 89,-123c0,-2 -60,-49 -134,-104l-134,-101l-89,117c-114,150 -153,177 -262,177c-91,-1 -140,-22 -195,-87c-43,-50 -60,-104 -77,-245c-7,-56 -15,-107 -19,-114c-6,-8 -48,-6 -169,11c-186,27 -169,9 -146,160c22,146 20,198 -13,261c-50,95 -144,147 -248,136c-66,-7 -95,-22 -222,-118l-105,-79l-98,132c-55,72 -99,135 -99,138c0,4 49,45 110,90c60,46 121,100 135,120c84,122 48,291 -79,365c-33,19 -78,30 -187,47c-79,11 -145,22 -147,23c-5,4 40,319 47,327c3,4 67,-2 141,-13c180,-26 243,-14 319,62c46,46 63,86 69,160c6,85 -12,125 -113,259c-42,55 -75,105 -73,110c3,8 253,200 262,200c2,0 42,-52 90,-115c47,-63 103,-126 124,-139c106,-69 231,-54 324,39c45,46 62,94 83,245c9,63 18,120 20,126c2,8 53,4 166,-13c89,-13 164,-25 166,-27zM1024,2691c9,-30 16,-56 16,-57c0,-1 -24,-8 -52,-14c-205,-48 -369,-235 -393,-447c-21,-179 80,-384 233,-477c242,-147 541,-84 697,147l32,48l29,-24c16,-12 59,-44 95,-70c79,-55 139,-121 169,-184l22,-46l-91,-91l-90,-90l-101,68c-56,38 -118,73 -139,78c-70,18 -149,-20 -185,-90c-7,-15 -24,-78 -37,-139l-23,-113h-102h-101l-17,85c-36,182 -66,231 -156,255c-58,16 -97,1 -212,-77l-99,-67l-76,77l-77,76l68,100c37,55 72,117 76,138c20,84 -34,172 -121,197c-27,8 -88,23 -134,32l-85,17v102v102l112,23c62,12 125,28 139,36c65,33 105,118 90,185c-5,20 -38,81 -75,134c-36,53 -66,100 -66,104c0,3 34,40 75,81l74,74l105,-72c114,-77 151,-90 212,-73c67,18 113,74 129,156c8,40 8,39 25,-45c10,-47 25,-109 34,-139zM1136,2408c58,-115 123,-209 233,-337l55,-63l-24,-45c-32,-61 -110,-128 -178,-153c-46,-18 -72,-21 -137,-18c-134,7 -228,72 -287,196c-28,59 -30,69 -26,150c3,62 11,100 27,133c50,105 167,186 273,188c36,1 39,-2 64,-51zM2910,685v-85h-340h-340v78c0,43 3,82 7,85c3,4 156,7 340,7h333zM2910,368c0,-77 -26,-134 -77,-168c-36,-25 -41,-25 -252,-28c-243,-3 -259,1 -314,69c-22,28 -30,51 -34,97c-9,100 -39,92 342,92h335z"></path><path d="M3514,4295c-207,-45 -377,-179 -468,-367c-53,-111 -69,-182 -69,-303c1,-182 67,-339 198,-471c68,-68 97,-89 176,-127c123,-59 181,-72 314,-71c89,1 125,6 190,27c186,61 325,183 411,361c127,263 60,593 -159,791c-75,68 -214,140 -312,160c-86,18 -199,18 -281,0zM3773,4125c181,-47 325,-190 373,-370c45,-165 -9,-355 -137,-483c-200,-200 -513,-198 -715,3c-201,201 -199,515 4,714c132,129 308,180 475,136z"></path><path d="M274,4585c-25,-36 -45,-67 -43,-69c36,-28 576,-409 584,-412c10,-4 111,124 103,131c-23,20 -583,415 -589,415c-4,0 -29,-29 -55,-65z"></path><path d="M1872,4105c-238,-174 -407,-436 -466,-725c-93,-458 95,-931 479,-1205c44,-32 148,-90 230,-130c138,-67 156,-79 217,-143c76,-81 124,-172 140,-265c19,-119 8,-107 101,-107h83l-7,68c-10,92 -18,126 -49,202c-35,87 -88,166 -158,234c-77,75 -113,99 -251,164c-150,70 -232,124 -324,212c-169,160 -280,384 -308,620c-40,352 114,715 394,923c37,27 67,53 67,58c0,7 -80,139 -84,139c-1,0 -30,-20 -64,-45z"></path><path d="M423,3737c-177,-45 -324,-85 -328,-88c-6,-7 24,-139 35,-152c5,-6 602,135 667,158c15,5 -25,165 -41,164c-6,0 -156,-38 -333,-82z"></path><path d="M4190,1865v-85h295h295v85v85h-295h-295z"></path><path d="M4100,1444c-29,-36 -49,-69 -44,-73c5,-4 119,-99 253,-211l245,-203l53,59c29,32 53,62 53,66c0,6 -401,345 -491,415c-13,11 -24,3 -69,-53z"></path><path d="M2490,1235v-125h85h85v125v125h-85h-85z"></path><path d="M3680,980v-300h85h85l-2,298l-3,297l-82,3l-83,3z"></path></g></g></g></svg>