<?xml version="1.0" standalone="no"?>
<!DOCTYPE svg PUBLIC "-//W3C//DTD SVG 20010904//EN"
 "http://www.w3.org/TR/2001/REC-SVG-20010904/DTD/svg10.dtd">
<svg version="1.0" xmlns="http://www.w3.org/2000/svg"
 width="1786.000000pt" height="378.000000pt" viewBox="0 0 1786.000000 378.000000"
 preserveAspectRatio="xMidYMid meet">

<g transform="translate(0.000000,378.000000) scale(0.100000,-0.100000)"
fill="#000000" stroke="none">
<path d="M5325 3381 c-49 -12 -89 -37 -127 -79 -47 -51 -53 -65 -68 -134 -17
-86 8 -167 72 -231 61 -61 106 -80 188 -80 165 0 281 125 267 289 -13 163
-170 274 -332 235z"/>
<path d="M13135 3355 c-27 -7 -98 -26 -156 -44 -58 -17 -153 -40 -210 -51
-196 -37 -219 -46 -219 -85 0 -60 24 -66 162 -43 l71 11 24 -27 23 -27 0
-1100 c0 -739 -3 -1107 -10 -1120 -10 -17 -22 -19 -113 -19 -77 0 -108 -4
-125 -16 -28 -19 -28 -58 -1 -85 21 -21 27 -21 168 -14 124 6 247 6 718 1 59
-1 86 17 86 58 0 47 -18 56 -110 56 -80 0 -119 10 -135 34 -4 6 -8 563 -8
1238 0 1203 0 1228 -19 1238 -25 13 -83 11 -146 -5z"/>
<path d="M11030 3233 c-84 -8 -299 -16 -510 -18 -201 -2 -368 -4 -372 -4 -16
-2 -38 -34 -38 -57 0 -45 29 -60 123 -66 58 -4 97 -12 118 -24 63 -37 61 3 62
-1089 1 -741 -2 -1000 -11 -1030 -16 -57 -56 -91 -122 -104 -69 -15 -100 -35
-100 -65 0 -47 16 -50 203 -37 110 8 348 11 662 9 446 -3 497 -1 570 15 297
68 490 231 571 482 32 98 44 290 24 376 -47 201 -249 380 -505 449 -121 33
-123 41 -29 88 194 97 315 237 361 415 21 83 13 237 -17 325 -97 280 -424 391
-990 335z m140 -123 c167 -21 257 -63 310 -147 46 -71 61 -135 67 -268 4 -100
2 -135 -16 -207 -40 -169 -123 -285 -233 -326 -61 -23 -266 -46 -358 -40 l-55
3 -3 485 c-1 267 0 491 3 498 6 15 164 16 285 2z m321 -1116 c102 -48 169
-141 206 -290 13 -51 17 -112 17 -239 0 -158 -2 -175 -27 -251 -64 -193 -201
-324 -376 -359 -104 -21 -271 -28 -335 -15 -97 20 -91 -20 -91 615 l0 550 100
6 c55 3 181 5 280 5 162 -1 185 -3 226 -22z"/>
<path d="M975 3224 c-143 -10 -308 -14 -515 -11 l-304 4 -23 -23 c-28 -28 -29
-58 -5 -82 15 -15 40 -20 121 -25 112 -6 146 -19 158 -65 4 -15 8 -481 8
-1037 0 -927 -1 -1013 -17 -1047 -20 -44 -65 -74 -122 -83 -86 -13 -97 -17
-108 -41 -8 -18 -7 -28 4 -46 l16 -24 548 -2 c432 -2 583 1 707 13 400 39 638
134 842 339 181 182 303 434 349 722 21 133 21 380 0 505 -79 469 -387 787
-862 890 -131 28 -499 34 -797 13z m601 -167 c349 -117 564 -513 564 -1040 0
-386 -107 -702 -305 -903 -163 -166 -329 -224 -685 -240 -175 -8 -215 0 -236
52 -12 28 -14 207 -14 1099 l0 1066 298 -3 c292 -4 298 -4 378 -31z"/>
<path d="M17560 2595 c-43 -39 -73 -58 -112 -69 -161 -46 -307 -46 -448 0 -76
24 -100 28 -225 28 -116 0 -153 -3 -219 -22 -227 -65 -399 -207 -457 -379 -43
-125 -29 -316 31 -433 39 -76 175 -213 258 -259 14 -8 1 -24 -76 -103 -236
-240 -258 -330 -93 -393 28 -11 51 -20 51 -20 0 0 -47 -49 -104 -107 -144
-148 -186 -245 -166 -375 28 -174 255 -285 643 -313 420 -30 782 86 920 296
60 91 73 254 27 343 -37 73 -112 144 -188 179 -94 43 -186 59 -412 72 -203 11
-337 25 -373 39 -12 5 -34 21 -49 36 -52 52 -34 146 43 221 l40 39 127 1 c145
1 239 22 357 79 118 57 240 176 283 275 77 181 43 438 -82 609 l-34 46 122 0
c131 1 212 16 251 47 23 18 25 26 25 99 0 96 -10 119 -50 119 -23 0 -45 -14
-90 -55z m-665 -139 c45 -34 82 -113 101 -216 13 -68 15 -130 11 -310 -5 -246
-16 -309 -65 -390 -35 -58 -79 -80 -157 -80 -194 1 -265 158 -252 555 9 288
58 411 182 462 48 20 140 9 180 -21z m-180 -1556 c227 -26 304 -44 355 -81 76
-56 105 -171 76 -308 -37 -173 -131 -250 -316 -259 -196 -9 -347 58 -397 175
-38 91 -34 278 8 373 29 65 69 120 88 120 9 0 93 -9 186 -20z"/>
<path d="M5365 2555 c-104 -24 -248 -51 -319 -60 -71 -9 -138 -21 -148 -26
-10 -5 -21 -21 -24 -36 -6 -20 -2 -31 16 -45 21 -17 35 -18 141 -12 112 6 117
6 128 -14 8 -15 11 -236 11 -750 0 -693 -1 -730 -18 -745 -14 -13 -39 -17
-108 -17 -100 0 -114 -7 -114 -57 0 -59 16 -62 255 -51 132 6 290 6 425 0 243
-11 263 -8 268 44 5 52 -17 64 -114 64 -138 0 -124 -103 -124 885 0 824 0 845
-19 855 -29 15 -47 12 -256 -35z"/>
<path d="M6480 2534 c-91 -24 -210 -51 -264 -60 -124 -19 -138 -26 -134 -67 4
-41 26 -47 144 -40 87 6 92 5 107 -18 15 -21 17 -91 17 -755 0 -642 -2 -733
-15 -744 -11 -9 -38 -11 -98 -6 -66 5 -86 4 -104 -9 -29 -20 -30 -65 -3 -90
18 -17 34 -17 251 -7 128 6 235 10 238 8 3 -2 87 -7 187 -11 200 -7 214 -4
214 54 0 43 -16 51 -105 51 -50 0 -86 5 -93 12 -9 9 -12 166 -12 645 0 716 -7
653 83 761 137 165 283 222 405 160 39 -20 52 -35 79 -89 18 -35 37 -93 43
-129 6 -38 10 -327 10 -707 l0 -642 -21 -6 c-12 -4 -49 -4 -83 0 -84 9 -116
-4 -116 -47 0 -65 -23 -62 446 -62 281 -1 432 3 441 9 10 7 13 25 11 50 l-3
40 -90 5 c-49 3 -96 9 -102 13 -10 6 -13 145 -13 637 0 689 -3 725 -59 845
-73 156 -227 225 -505 225 -179 0 -317 -46 -487 -161 -33 -22 -62 -39 -63 -37
-1 1 -12 39 -24 83 -28 97 -49 129 -88 132 -16 1 -103 -18 -194 -43z"/>
<path d="M14558 2565 c-273 -52 -511 -241 -628 -499 -119 -261 -113 -611 13
-861 126 -252 338 -412 617 -465 72 -14 283 -14 362 0 365 64 641 330 714 690
13 66 15 118 11 249 -6 204 -32 315 -108 471 -45 91 -64 117 -143 195 -108
108 -205 163 -354 202 -124 32 -363 41 -484 18z m328 -120 c85 -42 164 -148
209 -280 55 -164 81 -441 65 -680 -26 -366 -126 -585 -291 -640 -76 -26 -207
-17 -275 18 -67 34 -136 112 -178 201 -129 270 -138 818 -20 1136 32 85 104
190 155 225 88 61 233 70 335 20z"/>
<path d="M3615 2559 c-250 -27 -400 -110 -475 -263 -60 -121 -48 -190 37 -228
81 -36 227 -12 261 42 6 11 17 52 22 90 24 168 142 282 296 283 90 1 125 -24
170 -121 34 -74 54 -207 57 -368 l2 -138 -190 -43 c-104 -23 -224 -54 -265
-69 -229 -81 -432 -233 -503 -377 -37 -77 -53 -181 -38 -254 16 -83 46 -136
111 -201 66 -66 143 -111 248 -142 64 -19 89 -22 195 -17 176 7 272 46 416
171 36 31 67 56 71 56 3 0 16 -20 28 -45 32 -66 93 -127 159 -160 50 -25 72
-30 163 -33 89 -3 114 -1 162 18 95 35 192 139 174 185 -8 22 -38 19 -92 -10
-52 -28 -80 -31 -118 -14 -63 29 -75 146 -76 754 0 451 -2 472 -61 594 -62
125 -201 229 -366 272 -93 24 -261 32 -388 18z m378 -1126 l5 -318 -41 -38
c-69 -62 -189 -137 -245 -153 -155 -45 -243 41 -277 271 -8 56 11 169 40 233
47 104 173 210 312 264 69 27 165 56 189 57 8 1 13 -94 17 -316z"/>
<path d="M8260 405 l0 -65 840 0 840 0 0 65 0 65 -840 0 -840 0 0 -65z"/>
</g>
</svg>
